<?xml version="1.0" encoding="utf-8"?>
<svg viewBox="0 0 242.25 36" width="242.25" height="36" xmlns="http://www.w3.org/2000/svg">
  <g fill="#d61216" color="#d61216" transform="translate(0 4) scale(0.5833334)">
    <svg width="48.0" height="48.0" x="0.0" y="0.0" viewBox="0 0 48 48">
      <path fill="currentColor" fill-rule="evenodd" d="M28 24a4 4 0 1 1-8 0 4 4 0 0 1 8 0M26 0c12.318 1.024 22 11.367 22 24 0 12.505-9.489 22.772-21.631 23.967l-.37.033v-4.018C36.11 42.974 44 34.412 44 24c0-10.296-7.71-18.782-17.655-19.948L26 4.015V0zm-4 0v4.015C11.894 5.023 4 13.586 4 24c0 10.294 7.716 18.78 17.657 19.945l.343.037V48C9.684 46.979 0 36.631 0 24 0 11.367 9.684 1.024 22 0zm-9.82 26c.953 5.672 5.874 10 11.82 10 5.946 0 10.867-4.328 11.82-10h4.041c-.984 7.89-7.7 14-15.861 14-8.156 0-14.876-6.11-15.861-14zM24 16a8 8 0 0 1 8 8 8 8 0 1 1-8-8zm0-8c8.047 0 14.69 5.941 15.816 13.672l.045.328h-4.04c-.954-5.674-5.875-10-11.82-10-5.844 0-10.698 4.178-11.768 9.708L12.18 22H8.14C9.125 14.11 15.844 8 24 8z"/>
    </svg>
  </g>
  <path fill="#152452" fill-rule="nonzero" d="M 2.87 9.79 L 2.87 16.62 C 2.87 17.293 2.887 17.73 2.92 17.93 L 0 17.93 L 0 1.17 L 2.87 1.17 L 2.87 6.6 C 3.877 5.833 4.917 5.45 5.99 5.45 C 7.303 5.45 8.357 5.883 9.15 6.75 C 9.93 7.617 10.32 8.767 10.32 10.2 L 10.32 14.86 C 10.32 16.18 10.34 16.973 10.38 17.24 C 10.42 17.507 10.473 17.677 10.54 17.75 C 10.607 17.83 10.663 17.9 10.71 17.96 L 10.69 18.01 C 10.057 17.957 9.593 17.93 9.3 17.93 L 8.47 17.93 C 8.217 17.93 7.877 17.94 7.45 17.96 L 7.45 11.18 C 7.45 10.1 7.213 9.303 6.74 8.79 C 6.38 8.397 5.89 8.2 5.27 8.2 C 4.357 8.2 3.557 8.73 2.87 9.79 Z M 21.76 17.2 C 20.653 17.807 19.65 18.11 18.75 18.11 C 17.85 18.11 17.08 18.023 16.44 17.85 C 15.8 17.683 15.257 17.437 14.81 17.11 C 13.903 16.443 13.45 15.483 13.45 14.23 C 13.45 13.103 14.007 12.163 15.12 11.41 C 16.32 10.603 17.953 10.2 20.02 10.2 L 20.48 10.21 C 20.58 10.217 20.687 10.22 20.8 10.22 C 20.92 10.227 21.027 10.237 21.12 10.25 C 21.053 9.003 20.513 8.273 19.5 8.06 C 19.167 7.993 18.81 7.96 18.43 7.96 C 18.05 7.96 17.677 7.993 17.31 8.06 C 16.95 8.127 16.597 8.213 16.25 8.32 C 15.497 8.56 14.957 8.837 14.63 9.15 L 14.59 9.13 L 14.24 6.54 C 15.62 5.813 17.13 5.45 18.77 5.45 C 21.317 5.45 22.947 6.367 23.66 8.2 C 23.887 8.787 24 9.447 24 10.18 L 24 14.43 C 24 15.337 24.32 15.953 24.96 16.28 L 22.84 18.22 C 22.393 17.987 22.033 17.647 21.76 17.2 Z M 21.13 14.81 L 21.13 12.36 C 20.917 12.32 20.697 12.3 20.47 12.3 L 20 12.3 C 18.273 12.3 17.177 12.683 16.71 13.45 C 16.57 13.677 16.5 13.917 16.5 14.17 C 16.5 14.417 16.543 14.637 16.63 14.83 C 16.723 15.023 16.877 15.18 17.09 15.3 C 17.497 15.54 18.1 15.66 18.9 15.66 C 19.7 15.66 20.447 15.467 21.14 15.08 C 21.133 14.993 21.13 14.903 21.13 14.81 Z M 30.82 9.69 L 30.82 14.54 C 30.82 16.3 30.85 17.43 30.91 17.93 L 27.86 17.93 L 27.86 5.68 L 30.82 5.68 L 30.82 6.74 C 31.893 5.88 32.99 5.45 34.11 5.45 C 35.443 5.45 36.41 6.023 37.01 7.17 C 37.61 6.557 38.11 6.15 38.51 5.95 C 39.17 5.617 39.837 5.45 40.51 5.45 C 41.177 5.45 41.743 5.563 42.21 5.79 C 42.677 6.017 43.063 6.337 43.37 6.75 C 43.99 7.583 44.3 8.733 44.3 10.2 L 44.3 14.86 C 44.3 16.18 44.32 16.973 44.36 17.24 C 44.393 17.507 44.443 17.677 44.51 17.75 C 44.577 17.83 44.633 17.9 44.68 17.96 L 44.66 18.01 C 44.033 17.957 43.573 17.93 43.28 17.93 L 42.4 17.93 C 42.107 17.93 41.75 17.94 41.33 17.96 L 41.33 11.63 C 41.33 9.797 41.05 8.71 40.49 8.37 C 40.303 8.257 40.083 8.2 39.83 8.2 C 39.577 8.2 39.35 8.23 39.15 8.29 C 38.957 8.35 38.773 8.447 38.6 8.58 C 38.313 8.787 37.987 9.2 37.62 9.82 C 37.627 9.88 37.63 9.943 37.63 10.01 C 37.63 10.07 37.63 11.1 37.63 13.1 C 37.63 15.1 37.677 16.71 37.77 17.93 C 37.103 17.93 36.54 17.93 36.08 17.93 C 35.613 17.93 35.17 17.94 34.75 17.96 L 34.75 11.61 C 34.75 10.337 34.673 9.51 34.52 9.13 C 34.367 8.743 34.203 8.493 34.03 8.38 C 33.857 8.26 33.647 8.2 33.4 8.2 C 32.367 8.2 31.507 8.697 30.82 9.69 Z M 50.78 9.74 L 50.78 16.43 C 50.78 17.117 50.81 17.617 50.87 17.93 L 47.93 17.93 L 47.93 5.68 L 50.78 5.68 L 50.78 6.73 C 51.807 5.877 52.907 5.45 54.08 5.45 C 55.36 5.45 56.383 5.887 57.15 6.76 C 57.917 7.627 58.3 8.773 58.3 10.2 L 58.3 14.86 C 58.3 16.18 58.32 16.973 58.36 17.24 C 58.4 17.507 58.453 17.677 58.52 17.75 C 58.587 17.83 58.643 17.9 58.69 17.96 L 58.66 18.01 C 58.027 17.957 57.567 17.93 57.28 17.93 L 56.46 17.93 C 56.213 17.93 55.877 17.94 55.45 17.96 L 55.45 11.58 C 55.45 9.287 54.757 8.14 53.37 8.14 C 52.337 8.14 51.473 8.673 50.78 9.74 Z M 69.81 17.2 C 68.697 17.807 67.693 18.11 66.8 18.11 C 65.9 18.11 65.13 18.023 64.49 17.85 C 63.85 17.683 63.307 17.437 62.86 17.11 C 61.953 16.443 61.5 15.483 61.5 14.23 C 61.5 13.103 62.053 12.163 63.16 11.41 C 64.367 10.603 66 10.2 68.06 10.2 L 68.53 10.21 C 68.623 10.217 68.73 10.22 68.85 10.22 C 68.963 10.227 69.067 10.237 69.16 10.25 C 69.1 9.003 68.563 8.273 67.55 8.06 C 67.21 7.993 66.85 7.96 66.47 7.96 C 66.097 7.96 65.727 7.993 65.36 8.06 C 65 8.127 64.647 8.213 64.3 8.32 C 63.54 8.56 62.997 8.837 62.67 9.15 L 62.64 9.13 L 62.29 6.54 C 63.67 5.813 65.18 5.45 66.82 5.45 C 69.367 5.45 70.997 6.367 71.71 8.2 C 71.937 8.787 72.05 9.447 72.05 10.18 L 72.05 14.43 C 72.05 15.337 72.37 15.953 73.01 16.28 L 70.89 18.22 C 70.443 17.987 70.083 17.647 69.81 17.2 Z M 69.18 14.81 L 69.18 12.36 C 68.967 12.32 68.747 12.3 68.52 12.3 L 68.05 12.3 C 66.323 12.3 65.227 12.683 64.76 13.45 C 64.62 13.677 64.55 13.917 64.55 14.17 C 64.55 14.417 64.593 14.637 64.68 14.83 C 64.773 15.023 64.923 15.18 65.13 15.3 C 65.537 15.54 66.14 15.66 66.94 15.66 C 67.74 15.66 68.49 15.467 69.19 15.08 C 69.183 14.993 69.18 14.903 69.18 14.81 Z M 78.87 17.93 L 73.93 5.68 L 77.25 5.68 L 80.11 13.75 L 82.88 5.68 L 86.12 5.68 L 81.28 17.93 L 78.87 17.93 Z M 86.89 11.87 C 86.89 11.01 87.037 10.187 87.33 9.4 C 87.623 8.62 88.043 7.937 88.59 7.35 C 89.79 6.083 91.343 5.45 93.25 5.45 C 95.143 5.45 96.65 6.047 97.77 7.24 C 98.843 8.38 99.38 9.86 99.38 11.68 C 99.38 13.5 98.827 15.01 97.72 16.21 C 96.56 17.477 95.017 18.11 93.09 18.11 C 91.11 18.11 89.557 17.487 88.43 16.24 C 87.403 15.107 86.89 13.65 86.89 11.87 Z M 89.74 11.8 C 89.74 12.293 89.823 12.77 89.99 13.23 C 90.15 13.69 90.383 14.083 90.69 14.41 C 91.337 15.123 92.19 15.48 93.25 15.48 C 94.223 15.48 94.99 15.133 95.55 14.44 C 96.103 13.767 96.38 12.89 96.38 11.81 C 96.38 10.717 96.097 9.833 95.53 9.16 C 94.93 8.447 94.107 8.09 93.06 8.09 C 91.993 8.09 91.16 8.47 90.56 9.23 C 90.013 9.937 89.74 10.793 89.74 11.8 Z M 101.23 11.91 C 101.23 10.997 101.387 10.147 101.7 9.36 C 102.007 8.58 102.447 7.897 103.02 7.31 C 104.24 6.07 105.833 5.45 107.8 5.45 C 109.467 5.45 110.803 6 111.81 7.1 C 112.803 8.167 113.3 9.503 113.3 11.11 C 113.3 11.73 113.253 12.153 113.16 12.38 C 112.373 12.593 110.783 12.7 108.39 12.7 L 104.26 12.7 C 104.467 13.54 104.94 14.19 105.68 14.65 C 106.42 15.117 107.383 15.35 108.57 15.35 C 109.817 15.35 110.883 15.127 111.77 14.68 C 112.01 14.567 112.187 14.46 112.3 14.36 C 112.287 14.687 112.267 15.02 112.24 15.36 L 112.11 17.19 C 111.517 17.597 110.557 17.88 109.23 18.04 C 108.837 18.087 108.463 18.11 108.11 18.11 C 106.123 18.11 104.48 17.53 103.18 16.37 C 101.88 15.21 101.23 13.723 101.23 11.91 Z M 110.18 10.43 C 109.86 8.75 108.947 7.91 107.44 7.91 C 106.253 7.91 105.35 8.423 104.73 9.45 C 104.543 9.757 104.4 10.1 104.3 10.48 C 104.487 10.487 104.717 10.493 104.99 10.5 L 105.86 10.5 C 106.147 10.507 106.423 10.51 106.69 10.51 L 107.36 10.51 C 107.753 10.51 108.143 10.507 108.53 10.5 L 109.49 10.46 C 109.75 10.453 109.98 10.443 110.18 10.43 Z M 114.12 19.92 L 121.14 0 L 114.12 19.92 Z M 128.63 9.4 L 128.63 16.62 C 128.63 17.293 128.643 17.73 128.67 17.93 L 125.75 17.93 L 125.75 5.68 L 128.63 5.68 L 128.63 6.59 C 129.29 5.83 129.987 5.45 130.72 5.45 C 131.447 5.45 132.023 5.54 132.45 5.72 L 132.23 8.87 L 132.19 8.91 C 131.917 8.423 131.35 8.18 130.49 8.18 C 130.163 8.18 129.83 8.29 129.49 8.51 C 129.15 8.737 128.863 9.033 128.63 9.4 Z M 132.98 11.87 C 132.98 11.01 133.127 10.187 133.42 9.4 C 133.713 8.62 134.133 7.937 134.68 7.35 C 135.88 6.083 137.433 5.45 139.34 5.45 C 141.233 5.45 142.74 6.047 143.86 7.24 C 144.927 8.38 145.46 9.86 145.46 11.68 C 145.46 13.5 144.91 15.01 143.81 16.21 C 142.65 17.477 141.107 18.11 139.18 18.11 C 137.2 18.11 135.647 17.487 134.52 16.24 C 133.493 15.107 132.98 13.65 132.98 11.87 Z M 135.83 11.8 C 135.83 12.293 135.913 12.77 136.08 13.23 C 136.24 13.69 136.473 14.083 136.78 14.41 C 137.427 15.123 138.28 15.48 139.34 15.48 C 140.313 15.48 141.08 15.133 141.64 14.44 C 142.187 13.767 142.46 12.89 142.46 11.81 C 142.46 10.717 142.18 9.833 141.62 9.16 C 141.02 8.447 140.197 8.09 139.15 8.09 C 138.083 8.09 137.25 8.47 136.65 9.23 C 136.103 9.937 135.83 10.793 135.83 11.8 Z M 150.62 0.47 L 150.62 16.62 C 150.62 17.293 150.637 17.73 150.67 17.93 L 147.69 17.93 L 147.69 0.47 L 150.62 0.47 Z M 156.63 0.47 L 156.63 16.62 C 156.63 17.293 156.647 17.73 156.68 17.93 L 153.7 17.93 L 153.7 0.47 L 156.63 0.47 Z M 159.04 11.87 C 159.04 11.01 159.183 10.187 159.47 9.4 C 159.763 8.62 160.183 7.937 160.73 7.35 C 161.93 6.083 163.483 5.45 165.39 5.45 C 167.283 5.45 168.79 6.047 169.91 7.24 C 170.983 8.38 171.52 9.86 171.52 11.68 C 171.52 13.5 170.967 15.01 169.86 16.21 C 168.7 17.477 167.157 18.11 165.23 18.11 C 163.25 18.11 161.697 17.487 160.57 16.24 C 159.55 15.107 159.04 13.65 159.04 11.87 Z M 161.88 11.8 C 161.88 12.293 161.963 12.77 162.13 13.23 C 162.297 13.69 162.53 14.083 162.83 14.41 C 163.477 15.123 164.33 15.48 165.39 15.48 C 166.363 15.48 167.133 15.133 167.7 14.44 C 168.247 13.767 168.52 12.89 168.52 11.81 C 168.52 10.717 168.237 9.833 167.67 9.16 C 167.07 8.447 166.247 8.09 165.2 8.09 C 164.14 8.09 163.307 8.47 162.7 9.23 C 162.153 9.937 161.88 10.793 161.88 11.8 Z M 181.29 17.93 L 181.29 16.86 C 180.29 17.693 179.2 18.11 178.02 18.11 C 176.753 18.11 175.76 17.683 175.04 16.83 C 174.353 16.003 174.01 14.867 174.01 13.42 L 174.01 8.77 C 174.01 7.203 173.977 6.307 173.91 6.08 C 173.843 5.847 173.797 5.7 173.77 5.64 C 174.123 5.667 174.497 5.68 174.89 5.68 L 175.86 5.68 C 176.12 5.68 176.46 5.67 176.88 5.65 L 176.88 12.43 C 176.88 14.043 177.32 14.977 178.2 15.23 C 178.46 15.31 178.747 15.35 179.06 15.35 C 179.987 15.35 180.73 15.013 181.29 14.34 L 181.29 5.68 L 184.2 5.68 L 184.2 16.43 C 184.2 17.117 184.23 17.617 184.29 17.93 L 181.29 17.93 Z M 193.37 15.35 C 194.377 15.35 195.07 15.09 195.45 14.57 L 195.54 14.57 L 195.57 17.29 C 195.19 17.67 194.48 17.923 193.44 18.05 C 193.16 18.09 192.81 18.11 192.39 18.11 C 191.977 18.11 191.523 18.03 191.03 17.87 C 190.543 17.717 190.13 17.463 189.79 17.11 C 189.077 16.383 188.72 15.247 188.72 13.7 L 188.72 8.38 L 186.95 8.38 C 186.943 8.153 186.94 7.923 186.94 7.69 L 186.94 5.88 C 186.94 5.747 186.943 5.68 186.95 5.68 L 188.72 5.68 L 188.72 2.34 L 191.59 2.34 L 191.59 5.68 L 194.81 5.68 L 194.81 8.38 L 191.59 8.38 L 191.59 13.16 C 191.59 14.387 191.93 15.087 192.61 15.26 C 192.83 15.32 193.083 15.35 193.37 15.35 Z M 196.23 19.92 L 203.25 0 L 196.23 19.92 Z" transform="translate(36, 9.036)"/>
</svg>