<?xml version="1.0" standalone="no"?>
<svg xmlns="http://www.w3.org/2000/svg" viewBox="0 0 214.728 36" width="214.728" height="36"><g fill="#ff8888" color="#ff8888" transform="translate(0 4) scale(0.5185186)"><svg width="54.0" height="54.0" x="0.0" y="0.0" viewBox="0 0 54 54"><path fill="currentColor" fill-rule="evenodd" d="M14.31 12.015c.81-.09 1.08.27 1.215.54-.81.045-1.53-.045-1.98-.36.18-.045.45-.135.765-.18M27 0c7.47 0 14.22 3.015 19.08 7.92C50.985 12.78 54 19.53 54 27c0 7.47-3.015 14.22-7.92 19.08C41.22 50.985 34.47 54 27 54c-7.47 0-14.22-3.015-19.08-7.92C3.015 41.22 0 34.47 0 27c0-3.06.54-5.985 1.485-8.73.27-.72.54-1.395.81-2.07.045-.09.135-.27.36-.045.36.36.855.405 1.26.135-.27-.045-.63-.225-.9-.495-.315-.27-.45-.63-.495-.9-.045.09-1.575-.45-1.395-1.98 1.62 1.035 1.935-.495 3.285-.63-1.395-.54-1.17-2.925-1.17-2.925s1.035 1.35 2.61 1.44c-.63-.9.225-1.665.225-1.665s.315.45.81.765c.855.495 2.205.54 3.51.54.405 0 .855-.045 1.26-.045h.225a13.18 13.18 0 0 1 1.89 0 2.906 2.906 0 0 1 2.52 1.845s0 .09.045.18l1.08-.135c.72-.045 1.485-.135 2.205-.18 1.035-.045 1.845.36 2.43.9.63.54.855 1.35.945 1.755-.495-.27-2.205-.36-3.69.18-1.89.72-3.15 2.025-3.42 2.34-.45.54-.855 1.035-1.215 1.62-.27.45-.54.9-.765 1.395a14.813 14.813 0 0 0-1.575 6.3v.315c0 4.095 1.665 7.785 4.32 10.44a14.723 14.723 0 0 0 10.44 4.32c4.095 0 7.785-1.665 10.44-4.32a14.726 14.726 0 0 0 4.32-10.44c0-4.095-1.665-7.785-4.32-10.44a14.725 14.725 0 0 0-10.44-4.32c-1.26 0-2.475.135-3.645.45-.09 0-.135.045-.225.045a3.839 3.839 0 0 0-1.44-1.17c-.315-.18-.495-.225-.72-.315-.36-.09-.765-.18-1.125-.18.135-.045.225-.09.36-.135 2.16-.9 4.455-1.35 6.795-1.35 2.385 0 4.635.45 6.795 1.35 2.07.855 3.915 2.115 5.535 3.735 1.62 1.62 2.88 3.465 3.735 5.535.9 2.16 1.35 4.41 1.35 6.795s-.45 4.635-1.35 6.795c-.855 2.07-2.115 3.915-3.735 5.535-1.62 1.62-3.465 2.88-5.535 3.735-2.16.9-4.455 1.35-6.795 1.35-2.385 0-4.635-.45-6.795-1.35-.315-.09-.63-.27-.945-.405-.36-.135-1.125-.495-1.35.09-.225.54.27.99.63 1.17.36.18.72.36 1.08.495 2.295.99 4.77 1.485 7.335 1.485 2.565 0 4.995-.495 7.335-1.485 2.25-.945 4.23-2.295 5.985-4.05 1.755-1.71 3.105-3.735 4.05-5.985.99-2.34 1.485-4.77 1.485-7.335 0-2.565-.495-4.995-1.485-7.335-.945-2.25-2.295-4.23-4.05-5.985-1.71-1.755-3.735-3.105-5.985-4.05A18.588 18.588 0 0 0 27.045 8.1c-2.565 0-4.995.495-7.335 1.485-.99.405-1.935.9-2.835 1.485l-.09-.09a3.64 3.64 0 0 0-.945-.9 20.833 20.833 0 0 1 3.285-1.755A20.332 20.332 0 0 1 27 6.75c2.745 0 5.4.54 7.875 1.575a20.886 20.886 0 0 1 6.435 4.365c1.89 1.845 3.33 4.005 4.365 6.435A20.332 20.332 0 0 1 47.25 27c0 2.745-.54 5.4-1.575 7.875a20.878 20.878 0 0 1-4.365 6.435c-1.845 1.89-4.005 3.33-6.435 4.365A20.332 20.332 0 0 1 27 47.25c-2.745 0-5.4-.54-7.74-1.665-.45-.18-.9-.36-1.305-.585-.315-.135-.99-.45-1.26.045s.27 1.035.585 1.215c.45.225.945.45 1.44.675a21.86 21.86 0 0 0 8.46 1.71c2.925 0 5.805-.585 8.46-1.71a21.59 21.59 0 0 0 6.885-4.635 21.586 21.586 0 0 0 4.635-6.885 21.86 21.86 0 0 0 1.71-8.46c0-2.925-.585-5.805-1.71-8.46a21.58 21.58 0 0 0-4.635-6.885 21.59 21.59 0 0 0-6.885-4.635 21.857 21.857 0 0 0-8.46-1.71c-2.925 0-5.805.585-8.46 1.71-1.53.63-2.97 1.44-4.32 2.43-.405-.09-1.08-.18-2.07-.135a22.911 22.911 0 0 1 14.805-5.4c12.735 0 23.085 10.35 23.085 23.085 0 6.39-2.61 12.15-6.795 16.335-4.185 4.185-9.945 6.795-16.335 6.795-3.78 0-7.38-.9-10.575-2.565-.36-.18-1.08-.405-1.35.135-.27.495.225.9.54 1.08.585.315 1.17.585 1.8.855 3.015 1.305 6.21 1.935 9.54 1.935 3.285 0 6.525-.675 9.54-1.935a24.796 24.796 0 0 0 7.785-5.265c2.25-2.25 4.05-4.86 5.265-7.785 1.305-3.015 1.935-6.255 1.935-9.54 0-3.285-.675-6.525-1.935-9.54a24.796 24.796 0 0 0-5.265-7.785c-2.25-2.25-4.86-4.05-7.785-5.265-3.015-1.305-6.21-1.935-9.54-1.935-3.285 0-6.525.675-9.54 1.935-2.835 1.17-5.355 2.88-7.56 4.995-1.935-.045-2.7-.54-2.79-.63.09-.09.18-.225.27-.315C12.33 3.24 19.26 0 27 0zm0 19.62l1.71 5.175h5.445l-4.41 3.24 1.665 5.22L27 30.06l-4.41 3.195 1.665-5.22-4.41-3.24h5.445L27 19.62z"></path></svg></g><path fill="#0b0cac" fill-rule="nonzero" d="M10.94 8.78L10.94 18.07L7.82 18.07L7.82 9.48Q7.82 7.27 6.10 7.27L6.10 7.27L3.12 8.45L3.12 18.07L0 18.07L0 0.02L3.12 0.02L3.12 6.00L7.08 4.22Q9.19 4.22 10.07 5.42Q10.94 6.62 10.94 8.78L10.94 8.78ZM23.45 4.27L23.45 18.07L21.36 18.07L20.40 16.42L17.06 18.22Q14.28 18.22 13.32 16.20L13.32 16.20Q12.84 15.22 12.66 14.08Q12.48 12.94 12.48 11.70Q12.48 10.46 12.50 9.88Q12.53 9.29 12.62 8.51Q12.72 7.73 12.90 7.20Q13.08 6.67 13.42 6.11Q13.75 5.54 14.23 5.21L14.23 5.21Q15.31 4.46 17.04 4.46L17.04 4.46L20.33 4.46L23.45 4.27ZM17.95 14.93L20.33 13.70L20.33 7.27L17.95 7.27Q16.63 7.27 16.12 8.28Q15.60 9.29 15.60 11.29Q15.60 13.30 16.09 14.11Q16.58 14.93 17.95 14.93L17.95 14.93ZM44.50 8.88L44.50 18.07L41.38 18.07L41.38 9.55Q41.38 8.28 41.08 7.78Q40.78 7.27 40.03 7.27L40.03 7.27L37.22 8.45L37.22 18.07L34.10 18.07L34.10 9.55Q34.10 7.27 32.52 7.27L32.52 7.27L29.95 8.45L29.95 18.07L26.83 18.07L26.83 4.37L29.16 4.37L29.88 6.00L33.48 4.22Q35.35 4.22 36.31 6.05L36.31 6.05L40.78 4.22Q42.65 4.22 43.57 5.48Q44.50 6.74 44.50 8.88L44.50 8.88ZM58.49 8.88L58.49 18.07L55.37 18.07L55.37 9.31Q55.37 8.14 54.89 7.70Q54.41 7.27 53.54 7.27L53.54 7.27L50.74 8.45L50.74 18.07L47.62 18.07L47.62 4.37L49.94 4.37L50.66 6.00L54.50 4.22Q56.11 4.22 57.30 5.41Q58.49 6.60 58.49 8.88L58.49 8.88ZM71.04 4.27L71.04 18.07L68.95 18.07L67.99 16.42L64.66 18.22Q61.87 18.22 60.91 16.20L60.91 16.20Q60.43 15.22 60.25 14.08Q60.07 12.94 60.07 11.70Q60.07 10.46 60.10 9.88Q60.12 9.29 60.22 8.51Q60.31 7.73 60.49 7.20Q60.67 6.67 61.01 6.11Q61.34 5.54 61.82 5.21L61.82 5.21Q62.90 4.46 64.63 4.46L64.63 4.46L67.92 4.46L71.04 4.27ZM65.54 14.93L67.92 13.70L67.92 7.27L65.54 7.27Q64.22 7.27 63.71 8.28Q63.19 9.29 63.19 11.29Q63.19 13.30 63.68 14.11Q64.18 14.93 65.54 14.93L65.54 14.93ZM81.12 4.37L84.41 4.37L79.82 18.07L77.38 18.07L72.77 4.37L76.06 4.37L78.60 13.30L81.12 4.37ZM93.67 11.88L93.67 11.88L93.67 10.63Q93.67 8.86 93.16 7.92Q92.64 6.98 91.01 6.98L91.01 6.98Q88.37 6.98 88.37 10.54L88.37 10.54L88.37 11.78Q88.37 15.60 91.01 15.60L91.01 15.60Q92.71 15.60 93.24 14.33L93.24 14.33Q93.67 13.32 93.67 11.88ZM96.79 11.16L96.79 11.16Q96.79 15.60 95.11 17.11L95.11 17.11Q93.70 18.41 91.01 18.41L91.01 18.41Q87.58 18.41 86.38 16.39L86.38 16.39Q85.25 14.54 85.25 11.16L85.25 11.16Q85.25 7.99 86.38 6.19L86.38 6.19Q87.62 4.18 90.92 4.18Q94.22 4.18 95.51 5.94Q96.79 7.70 96.79 11.16ZM109.56 11.95L109.56 11.95L101.57 11.95Q101.57 13.82 102.16 14.69Q102.74 15.55 104.52 15.55L104.52 15.55Q105.67 15.55 106.22 14.82Q106.78 14.09 106.78 13.42L106.78 13.42L109.58 13.42Q109.58 15.98 108.20 17.18Q106.82 18.38 104.56 18.38Q102.29 18.38 101.04 17.74L101.04 17.74Q98.47 16.42 98.47 10.73L98.47 10.73Q98.47 7.34 99.94 5.77Q101.40 4.20 104.40 4.20L104.40 4.20Q109.61 4.20 109.61 9.98L109.61 9.98Q109.61 10.61 109.56 11.95ZM101.64 9.82L101.64 9.82L106.78 9.82Q106.78 8.23 106.18 7.51Q105.58 6.79 104.34 6.79Q103.10 6.79 102.37 7.52Q101.64 8.26 101.64 9.82ZM125.28 4.42L125.28 4.42L124.42 7.49Q124.06 7.34 123.60 7.34L123.60 7.34Q122.40 7.34 120.65 8.38L120.65 8.38L120.65 18.07L117.53 18.07L117.53 4.37L119.86 4.37L120.58 5.57L123.89 4.20Q124.13 4.18 124.54 4.18Q124.94 4.18 125.28 4.42ZM137.64 11.95L137.64 11.95L129.65 11.95Q129.65 13.82 130.24 14.69Q130.82 15.55 132.60 15.55L132.60 15.55Q133.75 15.55 134.30 14.82Q134.86 14.09 134.86 13.42L134.86 13.42L137.66 13.42Q137.66 15.98 136.28 17.18Q134.90 18.38 132.64 18.38Q130.37 18.38 129.12 17.74L129.12 17.74Q126.55 16.42 126.55 10.73L126.55 10.73Q126.55 7.34 128.02 5.77Q129.48 4.20 132.48 4.20L132.48 4.20Q137.69 4.20 137.69 9.98L137.69 9.98Q137.69 10.61 137.64 11.95ZM129.72 9.82L129.72 9.82L134.86 9.82Q134.86 8.23 134.26 7.51Q133.66 6.79 132.42 6.79Q131.18 6.79 130.45 7.52Q129.72 8.26 129.72 9.82ZM146.33 4.90L146.33 7.27L143.78 7.27L143.78 18.07L140.66 18.07L140.66 7.27L139.37 7.27L139.37 4.90L140.66 4.90L140.66 3.58Q140.66 2.11 141.60 1.06Q142.54 0 144.31 0L144.31 0L146.33 0L146.33 2.64L144.86 2.64Q143.78 2.64 143.78 3.77L143.78 3.77L143.78 4.90L146.33 4.90ZM151.73 0.02L151.73 18.07L148.61 18.10L148.61 0.02L151.73 0.02ZM165.36 11.95L165.36 11.95L157.37 11.95Q157.37 13.82 157.96 14.69Q158.54 15.55 160.32 15.55L160.32 15.55Q161.47 15.55 162.02 14.82Q162.58 14.09 162.58 13.42L162.58 13.42L165.38 13.42Q165.38 15.98 164.00 17.18Q162.62 18.38 160.36 18.38Q158.09 18.38 156.84 17.74L156.84 17.74Q154.27 16.42 154.27 10.73L154.27 10.73Q154.27 7.34 155.74 5.77Q157.20 4.20 160.20 4.20L160.20 4.20Q165.41 4.20 165.41 9.98L165.41 9.98Q165.41 10.61 165.36 11.95ZM157.44 9.82L157.44 9.82L162.58 9.82Q162.58 8.23 161.98 7.51Q161.38 6.79 160.14 6.79Q158.90 6.79 158.17 7.52Q157.44 8.26 157.44 9.82ZM174.41 11.09L178.73 18.07L175.22 18.07L172.80 13.87L170.52 18.07L166.78 18.07L171.22 11.09L166.94 4.37L170.45 4.37L172.85 8.33L175.18 4.37L178.68 4.37L174.41 11.09Z" transform="translate(36, 8.964)"></path></svg>